<svg width="480" height="200" viewBox="0 0 480 200" fill="none" xmlns="http://www.w3.org/2000/svg">
<mask id="path-1-inside-1_1_5" fill="white">
<path d="M0 0H472C476.418 0 480 3.58172 480 8V192C480 196.418 476.418 200 472 200H0V0Z"/>
</mask>
<path d="M0 -1H472C476.971 -1 481 3.02944 481 8H479C479 4.13401 475.866 1 472 1H0V-1ZM481 192C481 196.971 476.971 201 472 201H0V199H472C475.866 199 479 195.866 479 192H481ZM0 200V0V200ZM472 -1C476.971 -1 481 3.02944 481 8V192C481 196.971 476.971 201 472 201V199C475.866 199 479 195.866 479 192V8C479 4.13401 475.866 1 472 1V-1Z" fill="white" mask="url(#path-1-inside-1_1_5)"/>
</svg>
