<svg width="32" height="32" viewBox="0 0 32 32" fill="none" xmlns="http://www.w3.org/2000/svg">
<g clip-path="url(#clip0_23_46)">
<path d="M27.2451 4.64697C24.239 1.6521 20.24 0.00170899 15.9839 0C11.7373 0 7.73193 1.64893 4.70605 4.64307C1.6748 7.64233 0.00390625 11.6282 0 15.8518V15.8567V15.8596C0.000488281 18.416 0.672119 20.9949 1.94702 23.3489L0.0437012 32L8.79443 30.0095C11.0107 31.1265 13.4836 31.7153 15.9778 31.7163H15.9841C20.23 31.7163 24.2354 30.0671 27.2617 27.0728C30.2957 24.071 31.9673 20.0903 31.9692 15.864C31.9705 11.6675 30.293 7.68384 27.2451 4.64697ZM15.9839 29.2188H15.9783C13.7388 29.2178 11.5198 28.6555 9.56152 27.5923L9.14771 27.3677L3.32886 28.6912L4.59277 22.947L4.34912 22.5269C3.1377 20.4377 2.49756 18.1316 2.49756 15.8569C2.5022 8.49438 8.55151 2.49756 15.9834 2.49756C19.5737 2.49902 22.9473 3.89087 25.4824 6.41626C28.0559 8.98071 29.4727 12.3357 29.4714 15.8633C29.4685 23.2275 23.418 29.2188 15.9839 29.2188Z" fill="white"/>
<path d="M11.635 8.86719H10.9343C10.6904 8.86719 10.2944 8.9585 9.95947 9.323C9.62427 9.68774 8.67969 10.5693 8.67969 12.3623C8.67969 14.1553 9.98999 15.8877 10.1726 16.1311C10.3555 16.3743 12.7019 20.1711 16.4182 21.6318C19.5068 22.8457 20.1355 22.6042 20.8057 22.5435C21.4761 22.4829 22.969 21.6621 23.2737 20.8113C23.5784 19.9604 23.5784 19.231 23.4871 19.0786C23.3955 18.9268 23.1516 18.8357 22.7861 18.6536C22.4204 18.4712 20.6284 17.5747 20.2932 17.4529C19.958 17.3315 19.7144 17.2708 19.4705 17.6357C19.2266 18 18.5085 18.8428 18.2952 19.0859C18.082 19.3293 17.8687 19.3599 17.5029 19.1775C17.1372 18.9946 15.9717 18.603 14.575 17.3618C13.4878 16.3958 12.7334 15.1638 12.52 14.7991C12.3069 14.4346 12.4973 14.2373 12.6807 14.0554C12.845 13.8923 13.0669 13.6692 13.2498 13.4565C13.4324 13.2437 13.4844 13.0918 13.6064 12.8486C13.7283 12.6055 13.6672 12.3926 13.5759 12.2104C13.4844 12.0281 12.7827 10.2261 12.4575 9.50537H12.4578C12.1838 8.89844 11.8955 8.87793 11.635 8.86719Z" fill="white"/>
</g>
<defs>
<clipPath id="clip0_23_46">
<rect width="32" height="32" fill="white"/>
</clipPath>
</defs>
</svg>
